<?xml version="1.0" encoding="UTF-8"?>
<!DOCTYPE svg PUBLIC "-//W3C//DTD SVG 1.1//EN" "http://www.w3.org/Graphics/SVG/1.1/DTD/svg11.dtd">
<!-- Creator: CorelDRAW -->
<svg xmlns="http://www.w3.org/2000/svg" xml:space="preserve" width="20.4298mm" height="20.4298mm" version="1.1" style="shape-rendering:geometricPrecision; text-rendering:geometricPrecision; image-rendering:optimizeQuality; fill-rule:evenodd; clip-rule:evenodd"
viewBox="0 0 169.92 169.92"
 xmlns:xlink="http://www.w3.org/1999/xlink"
 xmlns:xodm="http://www.corel.com/coreldraw/odm/2003">
 <defs>
  <style type="text/css">
   <![CDATA[
    .fil0 {fill:#FEFEFE}
    .fil1 {fill:#33CC33}
   ]]>
  </style>
 </defs>
 <g id="Camada_x0020_1">
  <metadata id="CorelCorpID_0Corel-Layer"/>
  <rect class="fil0" width="169.92" height="169.92" rx="21.01" ry="21.01"/>
  <g id="_2945942414720">
   <path class="fil1" d="M121.28 123.53c-15.02,0 -30.48,0.36 -45.44,-0.01 -0.45,-0.01 -0.9,-0.03 -1.34,-0.05 6.49,11.35 18.71,19 32.72,19 20.8,0 37.66,-16.86 37.66,-37.66 0,-16.16 -10.18,-29.94 -24.47,-35.28 0.51,2.75 0.8,5.61 0.87,8.56 0.37,14.96 0.01,30.42 0.01,45.44z"/>
   <path class="fil1" d="M94.63 95.94c-4.56,5.5 -11.98,5.99 -17.72,1.41 1.27,-4.4 6.59,-8.02 9.57,-10.2 1.81,-1.33 3.02,-1.65 2.68,-3.3 -0,0 -0.19,-2.16 -4.24,0.64 -0.1,0.07 -0.23,0.17 -0.33,0.25l-3.75 3.17c-0.08,0.08 -0.21,0.2 -0.29,0.29 -0.08,0.08 -0.2,0.2 -0.29,0.28 -3.38,3.19 -3.34,4.31 -5.09,5.26 -4.07,-6.89 5.39,-14.42 10.21,-16.24 6.95,-2.63 18.93,-0.26 20.82,4.74 -9.72,6.55 -5.64,6.57 -11.55,13.72zm-24.17 22.34c14.96,0.37 30.42,0.01 45.44,0.01 0,-15.01 0.36,-30.48 -0.01,-45.44 -0.17,-6.8 -1.47,-13.16 -4.04,-18.67 -2.34,-5 -3.67,-6.69 -6.52,-10.53 -0.51,-0.69 -0.78,-0.8 -1.39,-1.43 -1.12,-1.15 -3.02,-3.31 -4.28,-4.24 -3.84,-2.85 -5.53,-4.18 -10.53,-6.52 -11.46,-5.35 -25.88,-5.35 -37.34,0 -4.89,2.28 -9.74,5.48 -13.49,9.23l-5.16 6.19c-1.39,1.87 -2.93,4.86 -4.07,7.3 -5.35,11.46 -5.35,25.88 0,37.34 2.37,5.07 2.6,5.18 5.35,8.85 0.57,0.76 0.71,1.07 1.17,1.69 0.51,0.69 0.78,0.8 1.39,1.43 1.12,1.15 3.02,3.31 4.28,4.24 3.84,2.85 5.53,4.19 10.53,6.52 5.5,2.57 11.87,3.87 18.67,4.04zm22.65 -45.14c-6.81,0.4 -12.92,2.53 -16.58,6.41 -5.31,5.62 -5.38,8.24 -4.03,17.19 -4.92,1.91 -5.22,2.14 -9.96,-0.76 -18.17,-11.15 -27.29,-33.29 -11.94,-38.84 10.5,-3.8 15.11,6.12 17.64,7.1 2.83,-2.09 2.37,-4.06 6.38,-6.14 6.13,-3.18 12.99,-2.12 16.96,4.24 1.9,3.04 1.67,6.42 1.52,10.81z"/>
   <path class="fil0" d="M50.6 57.13c-15.35,5.55 -6.23,27.7 11.94,38.84 4.74,2.9 5.04,2.68 9.96,0.76 -1.35,-8.95 -1.28,-11.57 4.03,-17.19 3.66,-3.88 9.77,-6.02 16.58,-6.41 0.16,-4.39 0.39,-7.76 -1.52,-10.81 -3.98,-6.36 -10.83,-7.43 -16.96,-4.24 -4.01,2.08 -3.55,4.05 -6.38,6.14 -2.54,-0.98 -7.15,-10.89 -17.64,-7.1z"/>
   <path class="fil0" d="M89.16 83.85c0.34,1.65 -0.87,1.97 -2.68,3.3 -2.97,2.18 -8.3,5.8 -9.57,10.2 5.74,4.58 13.16,4.1 17.72,-1.41 5.92,-7.14 1.84,-7.16 11.55,-13.72 -1.88,-4.99 -13.87,-7.37 -20.82,-4.74 -4.81,1.82 -14.27,9.35 -10.21,16.24 1.75,-0.95 1.71,-2.07 5.09,-5.26 0.09,-0.08 0.2,-0.2 0.29,-0.28 0.08,-0.08 0.21,-0.2 0.29,-0.29l3.75 -3.17c0.1,-0.07 0.23,-0.17 0.33,-0.25 4.05,-2.8 4.24,-0.64 4.24,-0.64z"/>
  </g>
 </g>
</svg>
